# This file uses centimeters as units for non-parametric coordinates.

mtllib projectile_02.mtl
g default
v 0.079987 -0.025989 1.769411
v 0.068041 -0.049435 1.769411
v 0.049434 -0.068041 1.769411
v 0.025989 -0.079987 1.769411
v -0.000000 -0.084103 1.769411
v -0.025989 -0.079987 1.769411
v -0.049435 -0.068041 1.769411
v -0.068041 -0.049435 1.769411
v -0.079987 -0.025989 1.769411
v -0.084103 -0.000000 1.769411
v -0.079987 0.025989 1.769411
v -0.068041 0.049434 1.769411
v -0.049435 0.068041 1.769411
v -0.025989 0.079987 1.769411
v -0.000000 0.084103 1.769411
v 0.025989 0.079987 1.769411
v 0.049434 0.068041 1.769411
v 0.068041 0.049434 1.769411
v 0.079987 0.025989 1.769411
v 0.084103 -0.000000 1.769411
v 0.079987 -0.025989 -1.769411
v 0.068041 -0.049435 -1.769411
v 0.049434 -0.068041 -1.769411
v 0.025989 -0.079987 -1.769411
v -0.000000 -0.084103 -1.769411
v -0.025989 -0.079987 -1.769411
v -0.049435 -0.068041 -1.769411
v -0.068041 -0.049435 -1.769411
v -0.079987 -0.025989 -1.769411
v -0.084103 -0.000000 -1.769411
v -0.079987 0.025989 -1.769411
v -0.068041 0.049434 -1.769411
v -0.049435 0.068041 -1.769411
v -0.025989 0.079987 -1.769411
v -0.000000 0.084103 -1.769411
v 0.025989 0.079987 -1.769411
v 0.049434 0.068041 -1.769411
v 0.068041 0.049434 -1.769411
v 0.079987 0.025989 -1.769411
v 0.084103 -0.000000 -1.769411
v 0.000000 0.000000 1.825699
v 0.000000 -0.000000 -1.825699
v 0.130866 0.095080 -1.646163
v 0.095080 0.130866 -1.646163
v 0.049986 0.153842 -1.646163
v -0.000000 0.161759 -1.646163
v -0.049986 0.153842 -1.646163
v -0.095080 0.130866 -1.646163
v -0.130866 0.095080 -1.646163
v -0.153842 0.049986 -1.646163
v -0.161759 -0.000000 -1.646163
v -0.153842 -0.049986 -1.646163
v -0.130866 -0.095080 -1.646163
v -0.095080 -0.130866 -1.646163
v -0.049986 -0.153842 -1.646163
v -0.000000 -0.161759 -1.646163
v 0.049986 -0.153842 -1.646163
v 0.095080 -0.130866 -1.646163
v 0.130866 -0.095080 -1.646163
v 0.153842 -0.049986 -1.646163
v 0.161759 -0.000000 -1.646163
v 0.153842 0.049986 -1.646163
v 0.196692 0.142905 0.000000
v 0.142905 0.196692 0.000000
v 0.075130 0.231225 0.000000
v -0.000000 0.243124 0.000000
v -0.075130 0.231225 0.000000
v -0.142905 0.196692 0.000000
v -0.196692 0.142905 0.000000
v -0.231225 0.075130 0.000000
v -0.243124 0.000000 0.000000
v -0.231225 -0.075130 0.000000
v -0.196692 -0.142905 0.000000
v -0.142905 -0.196692 0.000000
v -0.075130 -0.231225 0.000000
v 0.000000 -0.243124 0.000000
v 0.075130 -0.231225 0.000000
v 0.142905 -0.196692 0.000000
v 0.196692 -0.142905 0.000000
v 0.231225 -0.075130 0.000000
v 0.243124 0.000000 0.000000
v 0.231225 0.075130 0.000000
v 0.130866 0.095080 1.646163
v 0.095080 0.130866 1.646163
v 0.049986 0.153842 1.646163
v -0.000000 0.161759 1.646163
v -0.049986 0.153842 1.646163
v -0.095080 0.130866 1.646163
v -0.130866 0.095080 1.646163
v -0.153842 0.049986 1.646163
v -0.161759 -0.000000 1.646163
v -0.153842 -0.049986 1.646163
v -0.130866 -0.095080 1.646163
v -0.095080 -0.130866 1.646163
v -0.049986 -0.153842 1.646163
v -0.000000 -0.161759 1.646163
v 0.049986 -0.153842 1.646163
v 0.095080 -0.130866 1.646163
v 0.130866 -0.095080 1.646163
v 0.153842 -0.049986 1.646163
v 0.161759 -0.000000 1.646163
v 0.153842 0.049986 1.646163
vt 0.648603 0.107966
vt 0.626409 0.064408
vt 0.591842 0.029841
vt 0.548284 0.007647
vt 0.500000 -0.000000
vt 0.451716 0.007647
vt 0.408159 0.029841
vt 0.373591 0.064409
vt 0.351397 0.107966
vt 0.343750 0.156250
vt 0.351397 0.204534
vt 0.373591 0.248091
vt 0.408159 0.282659
vt 0.451716 0.304853
vt 0.500000 0.312500
vt 0.548284 0.304853
vt 0.591841 0.282659
vt 0.626409 0.248091
vt 0.648603 0.204534
vt 0.656250 0.156250
vt 0.375000 0.312500
vt 0.387500 0.312500
vt 0.400000 0.312500
vt 0.412500 0.312500
vt 0.425000 0.312500
vt 0.437500 0.312500
vt 0.450000 0.312500
vt 0.462500 0.312500
vt 0.475000 0.312500
vt 0.487500 0.312500
vt 0.500000 0.312500
vt 0.512500 0.312500
vt 0.525000 0.312500
vt 0.537500 0.312500
vt 0.550000 0.312500
vt 0.562500 0.312500
vt 0.575000 0.312500
vt 0.587500 0.312500
vt 0.600000 0.312500
vt 0.612500 0.312500
vt 0.625000 0.312500
vt 0.375000 0.688440
vt 0.387500 0.688440
vt 0.400000 0.688440
vt 0.412500 0.688440
vt 0.425000 0.688440
vt 0.437500 0.688440
vt 0.450000 0.688440
vt 0.462500 0.688440
vt 0.475000 0.688440
vt 0.487500 0.688440
vt 0.500000 0.688440
vt 0.512500 0.688440
vt 0.525000 0.688440
vt 0.537500 0.688440
vt 0.550000 0.688440
vt 0.562500 0.688440
vt 0.575000 0.688440
vt 0.587500 0.688440
vt 0.600000 0.688440
vt 0.612500 0.688440
vt 0.625000 0.688440
vt 0.648603 0.795466
vt 0.626409 0.751908
vt 0.591842 0.717341
vt 0.548284 0.695147
vt 0.500000 0.687500
vt 0.451716 0.695147
vt 0.408159 0.717341
vt 0.373591 0.751909
vt 0.351397 0.795466
vt 0.343750 0.843750
vt 0.351397 0.892034
vt 0.373591 0.935591
vt 0.408159 0.970159
vt 0.451716 0.992353
vt 0.500000 1.000000
vt 0.548284 0.992353
vt 0.591841 0.970159
vt 0.626409 0.935591
vt 0.648603 0.892034
vt 0.656250 0.843750
vt 0.500000 0.150000
vt 0.500000 0.837500
vt 0.587500 0.594455
vt 0.575000 0.594455
vt 0.562500 0.594455
vt 0.550000 0.594455
vt 0.537500 0.594455
vt 0.525000 0.594455
vt 0.512500 0.594455
vt 0.500000 0.594455
vt 0.487500 0.594455
vt 0.475000 0.594455
vt 0.462500 0.594455
vt 0.450000 0.594455
vt 0.437500 0.594455
vt 0.425000 0.594455
vt 0.412500 0.594455
vt 0.400000 0.594455
vt 0.387500 0.594455
vt 0.625000 0.594455
vt 0.375000 0.594455
vt 0.612500 0.594455
vt 0.600000 0.594455
vt 0.587500 0.500470
vt 0.575000 0.500470
vt 0.562500 0.500470
vt 0.550000 0.500470
vt 0.537500 0.500470
vt 0.525000 0.500470
vt 0.512500 0.500470
vt 0.500000 0.500470
vt 0.487500 0.500470
vt 0.475000 0.500470
vt 0.462500 0.500470
vt 0.450000 0.500470
vt 0.437500 0.500470
vt 0.425000 0.500470
vt 0.412500 0.500470
vt 0.400000 0.500470
vt 0.387500 0.500470
vt 0.625000 0.500470
vt 0.375000 0.500470
vt 0.612500 0.500470
vt 0.600000 0.500470
vt 0.587500 0.406485
vt 0.575000 0.406485
vt 0.562500 0.406485
vt 0.550000 0.406485
vt 0.537500 0.406485
vt 0.525000 0.406485
vt 0.512500 0.406485
vt 0.500000 0.406485
vt 0.487500 0.406485
vt 0.475000 0.406485
vt 0.462500 0.406485
vt 0.450000 0.406485
vt 0.437500 0.406485
vt 0.425000 0.406485
vt 0.412500 0.406485
vt 0.400000 0.406485
vt 0.387500 0.406485
vt 0.625000 0.406485
vt 0.375000 0.406485
vt 0.612500 0.406485
vt 0.600000 0.406485
vn 0.804652 -0.261447 0.533086
vn 0.684478 -0.497302 0.533086
vn 0.806958 -0.586289 0.071296
vn 0.948637 -0.308230 0.071296
vn 0.497302 -0.684478 0.533086
vn 0.586289 -0.806958 0.071296
vn 0.261447 -0.804652 0.533086
vn 0.308230 -0.948636 0.071296
vn 0.000000 -0.846061 0.533086
vn -0.000000 -0.997455 0.071296
vn -0.261447 -0.804652 0.533086
vn -0.308231 -0.948636 0.071296
vn -0.497302 -0.684478 0.533086
vn -0.586290 -0.806958 0.071296
vn -0.684478 -0.497302 0.533086
vn -0.806958 -0.586289 0.071296
vn -0.804652 -0.261448 0.533086
vn -0.948636 -0.308230 0.071296
vn -0.846061 -0.000000 0.533086
vn -0.997455 -0.000000 0.071296
vn -0.804652 0.261448 0.533086
vn -0.948636 0.308231 0.071296
vn -0.684478 0.497302 0.533086
vn -0.806958 0.586289 0.071296
vn -0.497302 0.684478 0.533086
vn -0.586289 0.806958 0.071296
vn -0.261447 0.804652 0.533086
vn -0.308231 0.948636 0.071296
vn -0.000000 0.846061 0.533086
vn 0.000000 0.997455 0.071296
vn 0.261447 0.804652 0.533086
vn 0.308231 0.948636 0.071296
vn 0.497302 0.684478 0.533086
vn 0.586289 0.806958 0.071296
vn 0.684477 0.497303 0.533086
vn 0.806958 0.586290 0.071296
vn 0.804651 0.261449 0.533086
vn 0.948636 0.308231 0.071296
vn 0.846061 0.000001 0.533086
vn 0.997455 0.000001 0.071296
vn 0.449972 -0.326929 0.831049
vn 0.528975 -0.171875 0.831050
vn 0.000000 -0.000000 1.000000
vn 0.326924 -0.449973 0.831050
vn 0.171874 -0.528974 0.831051
vn 0.000000 -0.556197 0.831051
vn -0.171875 -0.528974 0.831051
vn -0.326925 -0.449971 0.831051
vn -0.449973 -0.326923 0.831051
vn -0.528975 -0.171870 0.831051
vn -0.556197 -0.000000 0.831050
vn -0.528975 0.171870 0.831051
vn -0.449974 0.326923 0.831051
vn -0.326925 0.449972 0.831051
vn -0.171874 0.528974 0.831051
vn -0.000000 0.556198 0.831050
vn 0.171874 0.528976 0.831050
vn 0.326925 0.449974 0.831050
vn 0.449974 0.326923 0.831051
vn 0.528976 0.171870 0.831051
vn 0.556197 -0.000000 0.831050
vn 0.528975 -0.171870 -0.831051
vn 0.449973 -0.326927 -0.831050
vn 0.000000 -0.000000 -1.000000
vn 0.326924 -0.449975 -0.831050
vn 0.171874 -0.528974 -0.831051
vn 0.000000 -0.556197 -0.831050
vn -0.171875 -0.528974 -0.831051
vn -0.326925 -0.449971 -0.831051
vn -0.449973 -0.326923 -0.831051
vn -0.528975 -0.171870 -0.831051
vn -0.556197 -0.000000 -0.831050
vn -0.528975 0.171870 -0.831051
vn -0.449973 0.326923 -0.831051
vn -0.326925 0.449972 -0.831051
vn -0.171874 0.528974 -0.831051
vn -0.000000 0.556198 -0.831050
vn 0.171874 0.528976 -0.831050
vn 0.326925 0.449972 -0.831051
vn 0.449974 0.326921 -0.831051
vn 0.528976 0.171870 -0.831051
vn 0.556198 -0.000000 -0.831050
vn 0.586289 0.806958 -0.071296
vn 0.806958 0.586289 -0.071296
vn 0.684478 0.497302 -0.533086
vn 0.497302 0.684478 -0.533086
vn 0.308231 0.948636 -0.071296
vn 0.261447 0.804652 -0.533086
vn -0.000000 0.997455 -0.071296
vn -0.000000 0.846061 -0.533086
vn -0.308230 0.948636 -0.071296
vn -0.261447 0.804652 -0.533086
vn -0.586289 0.806958 -0.071296
vn -0.497302 0.684478 -0.533086
vn -0.806958 0.586290 -0.071296
vn -0.684478 0.497302 -0.533086
vn -0.948636 0.308231 -0.071296
vn -0.804652 0.261448 -0.533086
vn -0.997455 -0.000000 -0.071296
vn -0.846061 -0.000000 -0.533086
vn -0.948636 -0.308230 -0.071296
vn -0.804652 -0.261448 -0.533086
vn -0.806958 -0.586289 -0.071296
vn -0.684478 -0.497302 -0.533086
vn -0.586290 -0.806958 -0.071296
vn -0.497302 -0.684478 -0.533086
vn -0.308231 -0.948636 -0.071296
vn -0.261447 -0.804652 -0.533086
vn 0.000000 -0.997455 -0.071296
vn 0.000000 -0.846061 -0.533086
vn 0.308230 -0.948636 -0.071296
vn 0.261447 -0.804652 -0.533086
vn 0.586289 -0.806958 -0.071296
vn 0.497302 -0.684477 -0.533087
vn 0.806958 -0.586289 -0.071296
vn 0.684477 -0.497303 -0.533086
vn 0.948637 -0.308230 -0.071296
vn 0.804652 -0.261448 -0.533086
vn 0.997455 0.000001 -0.071296
vn 0.846061 0.000001 -0.533086
vn 0.948636 0.308231 -0.071296
vn 0.804652 0.261448 -0.533086
vn 0.587785 0.809017 -0.000000
vn 0.809017 0.587785 -0.000000
vn 0.309017 0.951057 0.000000
vn 0.000000 1.000000 -0.000000
vn -0.309017 0.951057 -0.000000
vn -0.587785 0.809017 -0.000000
vn -0.809017 0.587785 -0.000000
vn -0.951057 0.309017 0.000000
vn -1.000000 0.000000 0.000000
vn -0.951057 -0.309017 0.000000
vn -0.809017 -0.587785 0.000000
vn -0.587785 -0.809017 0.000000
vn -0.309017 -0.951056 0.000000
vn 0.000000 -1.000000 -0.000000
vn 0.309017 -0.951057 -0.000000
vn 0.587785 -0.809017 -0.000000
vn 0.809017 -0.587785 0.000000
vn 0.951057 -0.309016 -0.000000
vn 1.000000 0.000001 0.000000
vn 0.951057 0.309017 -0.000000
s 1
g pCylinder4
usemtl initialShadingGroup
f 1/21/1 2/22/2 99/143/3 100/145/4
f 2/22/2 3/23/5 98/142/6 99/143/3
f 3/23/5 4/24/7 97/141/8 98/142/6
f 4/24/7 5/25/9 96/140/10 97/141/8
f 5/25/9 6/26/11 95/139/12 96/140/10
f 6/26/11 7/27/13 94/138/14 95/139/12
f 7/27/13 8/28/15 93/137/16 94/138/14
f 8/28/15 9/29/17 92/136/18 93/137/16
f 9/29/17 10/30/19 91/135/20 92/136/18
f 10/30/19 11/31/21 90/134/22 91/135/20
f 11/31/21 12/32/23 89/133/24 90/134/22
f 12/32/23 13/33/25 88/132/26 89/133/24
f 13/33/25 14/34/27 87/131/28 88/132/26
f 14/34/27 15/35/29 86/130/30 87/131/28
f 15/35/29 16/36/31 85/129/32 86/130/30
f 16/36/31 17/37/33 84/128/34 85/129/32
f 17/37/33 18/38/35 83/127/36 84/128/34
f 18/38/35 19/39/37 102/147/38 83/127/36
f 19/39/37 20/40/39 101/146/40 102/147/38
f 20/40/39 1/41/1 100/144/4 101/146/40
s 2
f 2/2/41 1/1/42 41/83/43
f 3/3/44 2/2/41 41/83/43
f 4/4/45 3/3/44 41/83/43
f 5/5/46 4/4/45 41/83/43
f 6/6/47 5/5/46 41/83/43
f 7/7/48 6/6/47 41/83/43
f 8/8/49 7/7/48 41/83/43
f 9/9/50 8/8/49 41/83/43
f 10/10/51 9/9/50 41/83/43
f 11/11/52 10/10/51 41/83/43
f 12/12/53 11/11/52 41/83/43
f 13/13/54 12/12/53 41/83/43
f 14/14/55 13/13/54 41/83/43
f 15/15/56 14/14/55 41/83/43
f 16/16/57 15/15/56 41/83/43
f 17/17/58 16/16/57 41/83/43
f 18/18/59 17/17/58 41/83/43
f 19/19/60 18/18/59 41/83/43
f 20/20/61 19/19/60 41/83/43
f 1/1/42 20/20/61 41/83/43
s 3
f 21/81/62 22/80/63 42/84/64
f 22/80/63 23/79/65 42/84/64
f 23/79/65 24/78/66 42/84/64
f 24/78/66 25/77/67 42/84/64
f 25/77/67 26/76/68 42/84/64
f 26/76/68 27/75/69 42/84/64
f 27/75/69 28/74/70 42/84/64
f 28/74/70 29/73/71 42/84/64
f 29/73/71 30/72/72 42/84/64
f 30/72/72 31/71/73 42/84/64
f 31/71/73 32/70/74 42/84/64
f 32/70/74 33/69/75 42/84/64
f 33/69/75 34/68/76 42/84/64
f 34/68/76 35/67/77 42/84/64
f 35/67/77 36/66/78 42/84/64
f 36/66/78 37/65/79 42/84/64
f 37/65/79 38/64/80 42/84/64
f 38/64/80 39/63/81 42/84/64
f 39/63/81 40/82/82 42/84/64
f 40/82/82 21/81/62 42/84/64
s 1
f 44/86/83 43/85/84 38/59/85 37/58/86
f 45/87/87 44/86/83 37/58/86 36/57/88
f 46/88/89 45/87/87 36/57/88 35/56/90
f 47/89/91 46/88/89 35/56/90 34/55/92
f 48/90/93 47/89/91 34/55/92 33/54/94
f 49/91/95 48/90/93 33/54/94 32/53/96
f 50/92/97 49/91/95 32/53/96 31/52/98
f 51/93/99 50/92/97 31/52/98 30/51/100
f 52/94/101 51/93/99 30/51/100 29/50/102
f 53/95/103 52/94/101 29/50/102 28/49/104
f 54/96/105 53/95/103 28/49/104 27/48/106
f 55/97/107 54/96/105 27/48/106 26/47/108
f 56/98/109 55/97/107 26/47/108 25/46/110
f 57/99/111 56/98/109 25/46/110 24/45/112
f 58/100/113 57/99/111 24/45/112 23/44/114
f 59/101/115 58/100/113 23/44/114 22/43/116
f 60/103/117 59/101/115 22/43/116 21/42/118
f 61/104/119 60/102/117 21/62/118 40/61/120
f 62/105/121 61/104/119 40/61/120 39/60/122
f 43/85/84 62/105/121 39/60/122 38/59/85
f 64/107/123 63/106/124 43/85/84 44/86/83
f 65/108/125 64/107/123 44/86/83 45/87/87
f 66/109/126 65/108/125 45/87/87 46/88/89
f 67/110/127 66/109/126 46/88/89 47/89/91
f 68/111/128 67/110/127 47/89/91 48/90/93
f 69/112/129 68/111/128 48/90/93 49/91/95
f 70/113/130 69/112/129 49/91/95 50/92/97
f 71/114/131 70/113/130 50/92/97 51/93/99
f 72/115/132 71/114/131 51/93/99 52/94/101
f 73/116/133 72/115/132 52/94/101 53/95/103
f 74/117/134 73/116/133 53/95/103 54/96/105
f 75/118/135 74/117/134 54/96/105 55/97/107
f 76/119/136 75/118/135 55/97/107 56/98/109
f 77/120/137 76/119/136 56/98/109 57/99/111
f 78/121/138 77/120/137 57/99/111 58/100/113
f 79/122/139 78/121/138 58/100/113 59/101/115
f 80/124/140 79/122/139 59/101/115 60/103/117
f 81/125/141 80/123/140 60/102/117 61/104/119
f 82/126/142 81/125/141 61/104/119 62/105/121
f 63/106/124 82/126/142 62/105/121 43/85/84
f 84/128/34 83/127/36 63/106/124 64/107/123
f 85/129/32 84/128/34 64/107/123 65/108/125
f 86/130/30 85/129/32 65/108/125 66/109/126
f 87/131/28 86/130/30 66/109/126 67/110/127
f 88/132/26 87/131/28 67/110/127 68/111/128
f 89/133/24 88/132/26 68/111/128 69/112/129
f 90/134/22 89/133/24 69/112/129 70/113/130
f 91/135/20 90/134/22 70/113/130 71/114/131
f 92/136/18 91/135/20 71/114/131 72/115/132
f 93/137/16 92/136/18 72/115/132 73/116/133
f 94/138/14 93/137/16 73/116/133 74/117/134
f 95/139/12 94/138/14 74/117/134 75/118/135
f 96/140/10 95/139/12 75/118/135 76/119/136
f 97/141/8 96/140/10 76/119/136 77/120/137
f 98/142/6 97/141/8 77/120/137 78/121/138
f 99/143/3 98/142/6 78/121/138 79/122/139
f 100/145/4 99/143/3 79/122/139 80/124/140
f 101/146/40 100/144/4 80/123/140 81/125/141
f 102/147/38 101/146/40 81/125/141 82/126/142
f 83/127/36 102/147/38 82/126/142 63/106/124
