# This file uses centimeters as units for non-parametric coordinates.

mtllib projectile_01.mtl
g default
v 0.072136 -0.041647 2.731412
v 0.041647 -0.072136 2.731412
v -0.000000 -0.083295 2.731412
v -0.041647 -0.072136 2.731412
v -0.072136 -0.041647 2.731412
v -0.083295 0.000000 2.731412
v -0.072136 0.041647 2.731412
v -0.041647 0.072136 2.731412
v -0.000000 0.083295 2.731412
v 0.041647 0.072136 2.731412
v 0.072136 0.041647 2.731412
v 0.083295 0.000000 2.731412
v 0.210086 -0.121293 -2.777311
v 0.121293 -0.210086 -2.777311
v -0.000000 -0.242586 -2.777311
v -0.121293 -0.210086 -2.777311
v -0.210086 -0.121293 -2.777311
v -0.242586 -0.000000 -2.777311
v -0.210086 0.121293 -2.777311
v -0.121293 0.210086 -2.777311
v -0.000000 0.242586 -2.777311
v 0.121293 0.210086 -2.777311
v 0.210086 0.121293 -2.777311
v 0.242586 -0.000000 -2.777311
v 0.000000 0.000000 2.854288
v 0.000000 -0.000000 -2.854288
v -0.221376 0.383434 -2.582673
v -0.383434 0.221376 -2.582673
v -0.442752 -0.000000 -2.582673
v -0.383434 -0.221376 -2.582673
v -0.221376 -0.383434 -2.582673
v -0.000000 -0.442752 -2.582673
v 0.221376 -0.383434 -2.582673
v 0.383434 -0.221376 -2.582673
v 0.442752 -0.000000 -2.582673
v 0.383434 0.221376 -2.582673
v 0.221376 0.383434 -2.582673
v -0.000000 0.442752 -2.582673
v 0.513823 -0.000000 -2.220740
v 0.444984 0.256912 -2.220740
v 0.256912 0.444984 -2.220740
v 0.000000 0.513823 -2.220740
v -0.256912 0.444984 -2.220740
v -0.444984 0.256912 -2.220740
v -0.513823 -0.000000 -2.220740
v -0.444984 -0.256912 -2.220740
v -0.256912 -0.444984 -2.220740
v 0.000000 -0.513823 -2.220740
v 0.256912 -0.444984 -2.220740
v 0.444984 -0.256912 -2.220740
v -0.227187 0.393500 -1.424025
v -0.393500 0.227187 -1.424025
v -0.454374 -0.000000 -1.424025
v -0.393500 -0.227187 -1.424025
v -0.227187 -0.393500 -1.424025
v -0.000000 -0.454374 -1.424025
v 0.227187 -0.393500 -1.424025
v 0.393500 -0.227187 -1.424025
v 0.454374 -0.000000 -1.424025
v 0.393500 0.227187 -1.424025
v 0.227187 0.393500 -1.424025
v -0.000000 0.454374 -1.424025
vt 0.635316 0.078125
vt 0.578125 0.020934
vt 0.500000 0.000000
vt 0.421875 0.020934
vt 0.364684 0.078125
vt 0.343750 0.156250
vt 0.364684 0.234375
vt 0.421875 0.291566
vt 0.500000 0.312500
vt 0.578125 0.291566
vt 0.635316 0.234375
vt 0.656250 0.156250
vt 0.375000 0.312500
vt 0.395833 0.312500
vt 0.416667 0.312500
vt 0.437500 0.312500
vt 0.458333 0.312500
vt 0.479167 0.312500
vt 0.500000 0.312500
vt 0.520833 0.312500
vt 0.541667 0.312500
vt 0.562500 0.312500
vt 0.583333 0.312500
vt 0.604167 0.312500
vt 0.625000 0.312500
vt 0.375000 0.688440
vt 0.395833 0.688440
vt 0.416667 0.688440
vt 0.437500 0.688440
vt 0.458333 0.688440
vt 0.479167 0.688440
vt 0.500000 0.688440
vt 0.520833 0.688440
vt 0.541667 0.688440
vt 0.562500 0.688440
vt 0.583333 0.688440
vt 0.604167 0.688440
vt 0.625000 0.688440
vt 0.635316 0.765625
vt 0.578125 0.708434
vt 0.500000 0.687500
vt 0.421875 0.708434
vt 0.364684 0.765625
vt 0.343750 0.843750
vt 0.364684 0.921875
vt 0.421875 0.979066
vt 0.500000 1.000000
vt 0.578125 0.979066
vt 0.635316 0.921875
vt 0.656250 0.843750
vt 0.500000 0.150000
vt 0.500000 0.837500
vt 0.520833 0.670553
vt 0.500000 0.670553
vt 0.479167 0.670553
vt 0.458333 0.670553
vt 0.437500 0.670553
vt 0.416667 0.670553
vt 0.395833 0.670553
vt 0.625000 0.670553
vt 0.375000 0.670553
vt 0.604167 0.670553
vt 0.583333 0.670553
vt 0.562500 0.670553
vt 0.541667 0.670553
vt 0.604167 0.633505
vt 0.583333 0.633505
vt 0.562500 0.633505
vt 0.541667 0.633505
vt 0.520833 0.633505
vt 0.500000 0.633505
vt 0.479167 0.633505
vt 0.458333 0.633505
vt 0.437500 0.633505
vt 0.416667 0.633505
vt 0.395833 0.633505
vt 0.625000 0.633505
vt 0.375000 0.633505
vt 0.520833 0.593327
vt 0.500000 0.593327
vt 0.479167 0.593327
vt 0.458333 0.593327
vt 0.437500 0.593327
vt 0.416667 0.593327
vt 0.395833 0.593327
vt 0.625000 0.593327
vt 0.375000 0.593327
vt 0.604167 0.593327
vt 0.583333 0.593327
vt 0.562500 0.593327
vt 0.541667 0.593327
vn 0.704491 -0.704491 0.085938
vn 0.704491 -0.704491 0.085938
vn 0.704728 -0.704728 0.081956
vn 0.704728 -0.704728 0.081956
vn 0.257862 -0.962352 0.085938
vn 0.257861 -0.962352 0.085938
vn 0.257948 -0.962676 0.081956
vn 0.257948 -0.962676 0.081956
vn -0.257861 -0.962352 0.085938
vn -0.257862 -0.962352 0.085938
vn -0.257948 -0.962676 0.081956
vn -0.257948 -0.962676 0.081956
vn -0.704491 -0.704491 0.085938
vn -0.704491 -0.704491 0.085938
vn -0.704728 -0.704728 0.081956
vn -0.704728 -0.704728 0.081956
vn -0.962352 -0.257861 0.085938
vn -0.962352 -0.257861 0.085938
vn -0.962676 -0.257948 0.081956
vn -0.962676 -0.257948 0.081956
vn -0.962352 0.257861 0.085938
vn -0.962352 0.257861 0.085938
vn -0.962676 0.257948 0.081956
vn -0.962676 0.257948 0.081956
vn -0.704491 0.704491 0.085938
vn -0.704491 0.704491 0.085938
vn -0.704728 0.704728 0.081956
vn -0.704728 0.704728 0.081956
vn -0.257862 0.962352 0.085938
vn -0.257861 0.962352 0.085938
vn -0.257948 0.962676 0.081956
vn -0.257948 0.962676 0.081956
vn 0.257861 0.962352 0.085938
vn 0.257862 0.962352 0.085938
vn 0.257948 0.962676 0.081956
vn 0.257948 0.962676 0.081956
vn 0.704491 0.704491 0.085938
vn 0.704491 0.704491 0.085938
vn 0.704728 0.704728 0.081956
vn 0.704728 0.704728 0.081956
vn 0.962352 0.257861 0.085938
vn 0.962352 0.257861 0.085938
vn 0.962676 0.257948 0.081956
vn 0.962676 0.257948 0.081956
vn 0.962352 -0.257861 0.085938
vn 0.962352 -0.257861 0.085938
vn 0.962676 -0.257948 0.081956
vn 0.962676 -0.257948 0.081956
vn 0.413871 -0.716847 0.561107
vn 0.716847 -0.413871 0.561108
vn 0.000000 0.000000 1.000000
vn 0.000000 -0.827744 0.561106
vn -0.413871 -0.716847 0.561107
vn -0.716847 -0.413871 0.561108
vn -0.827743 0.000000 0.561107
vn -0.716847 0.413871 0.561108
vn -0.413871 0.716847 0.561107
vn 0.000000 0.827744 0.561106
vn 0.413871 0.716847 0.561107
vn 0.716847 0.413871 0.561108
vn 0.827743 0.000000 0.561107
vn 0.261936 -0.151230 -0.953163
vn 0.151229 -0.261937 -0.953163
vn -0.000000 0.000000 -1.000000
vn 0.000000 -0.302459 -0.953163
vn -0.151229 -0.261936 -0.953163
vn -0.261936 -0.151229 -0.953163
vn -0.302458 -0.000000 -0.953163
vn -0.261936 0.151230 -0.953163
vn -0.151229 0.261937 -0.953163
vn 0.000000 0.302459 -0.953163
vn 0.151229 0.261936 -0.953163
vn 0.261936 0.151229 -0.953163
vn 0.302458 -0.000000 -0.953163
vn -0.663408 0.663408 -0.346092
vn -0.663408 0.663408 -0.346092
vn -0.501664 0.501664 -0.704746
vn -0.501664 0.501664 -0.704746
vn -0.906232 0.242824 -0.346092
vn -0.906232 0.242824 -0.346092
vn -0.685286 0.183621 -0.704746
vn -0.685286 0.183621 -0.704746
vn -0.906232 -0.242824 -0.346092
vn -0.906232 -0.242824 -0.346092
vn -0.685286 -0.183622 -0.704746
vn -0.685286 -0.183622 -0.704745
vn -0.663408 -0.663408 -0.346092
vn -0.663408 -0.663408 -0.346092
vn -0.501664 -0.501664 -0.704745
vn -0.501664 -0.501664 -0.704745
vn -0.242824 -0.906232 -0.346092
vn -0.242824 -0.906232 -0.346092
vn -0.183622 -0.685286 -0.704745
vn -0.183622 -0.685286 -0.704746
vn 0.242824 -0.906232 -0.346092
vn 0.242824 -0.906232 -0.346092
vn 0.183622 -0.685286 -0.704746
vn 0.183622 -0.685286 -0.704745
vn 0.663408 -0.663408 -0.346092
vn 0.663408 -0.663408 -0.346092
vn 0.501664 -0.501664 -0.704746
vn 0.501664 -0.501664 -0.704746
vn 0.906232 -0.242824 -0.346092
vn 0.906232 -0.242824 -0.346092
vn 0.685286 -0.183621 -0.704746
vn 0.685286 -0.183621 -0.704746
vn 0.906232 0.242824 -0.346092
vn 0.906232 0.242824 -0.346092
vn 0.685286 0.183622 -0.704745
vn 0.685286 0.183622 -0.704746
vn 0.663408 0.663408 -0.346092
vn 0.663408 0.663408 -0.346092
vn 0.501664 0.501664 -0.704746
vn 0.501664 0.501664 -0.704746
vn 0.242824 0.906232 -0.346092
vn 0.242824 0.906232 -0.346092
vn 0.183622 0.685286 -0.704746
vn 0.183622 0.685286 -0.704746
vn -0.242824 0.906232 -0.346092
vn -0.242824 0.906232 -0.346092
vn -0.183622 0.685286 -0.704746
vn -0.183622 0.685286 -0.704746
vn 0.965912 0.258815 -0.005416
vn 0.965912 0.258815 -0.005416
vn 0.707096 0.707097 -0.005417
vn 0.707096 0.707097 -0.005417
vn 0.258815 0.965912 -0.005416
vn 0.258815 0.965912 -0.005417
vn -0.258815 0.965912 -0.005416
vn -0.258815 0.965912 -0.005416
vn -0.707096 0.707097 -0.005417
vn -0.707096 0.707097 -0.005417
vn -0.965912 0.258815 -0.005416
vn -0.965912 0.258815 -0.005416
vn -0.965912 -0.258815 -0.005416
vn -0.965912 -0.258815 -0.005416
vn -0.707096 -0.707097 -0.005417
vn -0.707096 -0.707097 -0.005417
vn -0.258815 -0.965912 -0.005416
vn -0.258815 -0.965912 -0.005417
vn 0.258815 -0.965912 -0.005416
vn 0.258815 -0.965912 -0.005416
vn 0.707096 -0.707097 -0.005417
vn 0.707096 -0.707097 -0.005417
vn 0.965912 -0.258815 -0.005416
vn 0.965912 -0.258815 -0.005416
s 1
g pCylinder3
usemtl initialShadingGroup
f 1/13/1 2/14/2 57/85/3 58/87/4
s 2
f 2/14/5 3/15/6 56/84/7 57/85/8
s 3
f 3/15/9 4/16/10 55/83/11 56/84/12
s 4
f 4/16/13 5/17/14 54/82/15 55/83/16
s 5
f 5/17/17 6/18/18 53/81/19 54/82/20
s 6
f 6/18/21 7/19/22 52/80/23 53/81/24
s 7
f 7/19/25 8/20/26 51/79/27 52/80/28
s 8
f 8/20/29 9/21/30 62/91/31 51/79/32
s 9
f 9/21/33 10/22/34 61/90/35 62/91/36
s 10
f 10/22/37 11/23/38 60/89/39 61/90/40
s 11
f 11/23/41 12/24/42 59/88/43 60/89/44
s 12
f 12/24/45 1/25/46 58/86/47 59/88/48
s 13
f 2/2/49 1/1/50 25/51/51
f 3/3/52 2/2/49 25/51/51
f 4/4/53 3/3/52 25/51/51
f 5/5/54 4/4/53 25/51/51
f 6/6/55 5/5/54 25/51/51
f 7/7/56 6/6/55 25/51/51
f 8/8/57 7/7/56 25/51/51
f 9/9/58 8/8/57 25/51/51
f 10/10/59 9/9/58 25/51/51
f 11/11/60 10/10/59 25/51/51
f 12/12/61 11/11/60 25/51/51
f 1/1/50 12/12/61 25/51/51
s 14
f 13/49/62 14/48/63 26/52/64
f 14/48/63 15/47/65 26/52/64
f 15/47/65 16/46/66 26/52/64
f 16/46/66 17/45/67 26/52/64
f 17/45/67 18/44/68 26/52/64
f 18/44/68 19/43/69 26/52/64
f 19/43/69 20/42/70 26/52/64
f 20/42/70 21/41/71 26/52/64
f 21/41/71 22/40/72 26/52/64
f 22/40/72 23/39/73 26/52/64
f 23/39/73 24/50/74 26/52/64
f 24/50/74 13/49/62 26/52/64
s 7
f 28/54/75 27/53/76 20/33/77 19/32/78
s 6
f 29/55/79 28/54/80 19/32/81 18/31/82
s 5
f 30/56/83 29/55/84 18/31/85 17/30/86
s 4
f 31/57/87 30/56/88 17/30/89 16/29/90
s 3
f 32/58/91 31/57/92 16/29/93 15/28/94
s 2
f 33/59/95 32/58/96 15/28/97 14/27/98
s 1
f 34/61/99 33/59/100 14/27/101 13/26/102
s 12
f 35/62/103 34/60/104 13/38/105 24/37/106
s 11
f 36/63/107 35/62/108 24/37/109 23/36/110
s 10
f 37/64/111 36/63/112 23/36/113 22/35/114
s 9
f 38/65/115 37/64/116 22/35/117 21/34/118
s 8
f 27/53/119 38/65/120 21/34/121 20/33/122
s 11
f 40/67/123 39/66/124 35/62/108 36/63/107
s 10
f 41/68/125 40/67/126 36/63/112 37/64/111
s 9
f 42/69/127 41/68/128 37/64/116 38/65/115
s 8
f 43/70/129 42/69/130 38/65/120 27/53/119
s 7
f 44/71/131 43/70/132 27/53/76 28/54/75
s 6
f 45/72/133 44/71/134 28/54/80 29/55/79
s 5
f 46/73/135 45/72/136 29/55/84 30/56/83
s 4
f 47/74/137 46/73/138 30/56/88 31/57/87
s 3
f 48/75/139 47/74/140 31/57/92 32/58/91
s 2
f 49/76/141 48/75/142 32/58/96 33/59/95
s 1
f 50/78/143 49/76/144 33/59/100 34/61/99
s 12
f 39/66/145 50/77/146 34/60/104 35/62/103
s 7
f 52/80/28 51/79/27 43/70/132 44/71/131
s 6
f 53/81/24 52/80/23 44/71/134 45/72/133
s 5
f 54/82/20 53/81/19 45/72/136 46/73/135
s 4
f 55/83/16 54/82/15 46/73/138 47/74/137
s 3
f 56/84/12 55/83/11 47/74/140 48/75/139
s 2
f 57/85/8 56/84/7 48/75/142 49/76/141
s 1
f 58/87/4 57/85/3 49/76/144 50/78/143
s 12
f 59/88/48 58/86/47 50/77/146 39/66/145
s 11
f 60/89/44 59/88/43 39/66/124 40/67/123
s 10
f 61/90/40 60/89/39 40/67/126 41/68/125
s 9
f 62/91/36 61/90/35 41/68/128 42/69/127
s 8
f 51/79/32 62/91/31 42/69/130 43/70/129
