# This file uses centimeters as units for non-parametric coordinates.

mtllib asteroid.mtl
g default
v 0.000000 -1.655701 -4.334680
v -1.655701 -4.334680 0.000000
v -4.334680 0.000000 -1.655701
v -2.678980 -2.678980 -2.678980
v -2.678980 -2.678980 2.678980
v 0.000000 -1.655701 4.334680
v -1.655701 4.334680 0.000000
v -4.334680 0.000000 1.655701
v -2.678980 2.678980 -2.678980
v -2.678980 2.678980 2.678980
v 0.000000 1.655701 -4.334680
v 1.655701 -4.334680 0.000000
v 4.334680 0.000000 -1.655701
v 2.678980 -2.678980 -2.678980
v 2.678980 -2.678980 2.678980
v 0.000000 1.655701 4.334680
v 1.655701 4.334680 0.000000
v 4.334680 0.000000 1.655701
v 2.678980 2.678980 -2.678980
v 2.678980 2.678980 2.678980
v 0.000000 3.947129 -2.439460
v 3.947129 2.439460 0.000000
v -0.000000 3.947129 2.439460
v -3.947129 2.439460 0.000000
v 0.000000 -3.947129 -2.439460
v 0.000000 -3.947129 2.439460
v 2.439460 0.000000 -3.947129
v -2.439460 0.000000 -3.947129
v -3.947129 -2.439460 -0.000000
v -2.439460 0.000000 3.947129
v 3.947129 -2.439460 0.000000
v 2.439460 0.000000 3.947129
v 0.000000 4.640129 0.000000
v -0.973196 4.391511 -1.139438
v 0.973196 4.391511 -1.139438
v 2.320065 3.753943 -1.433879
v 1.574665 3.418315 -2.714103
v 1.433879 2.320065 -3.753943
v 0.000000 2.816846 -3.687299
v -1.433879 2.320065 -3.753943
v -1.574665 3.418315 -2.714103
v -2.320065 3.753943 -1.433879
v 4.640129 0.000000 0.000000
v 4.391511 1.139438 0.973196
v 4.391511 1.139438 -0.973196
v 3.753943 1.433879 -2.320065
v 3.418315 2.714103 -1.574665
v 2.816846 3.687299 0.000000
v 2.320065 3.753943 1.433879
v 3.418315 2.714103 1.574665
v 3.753943 1.433879 2.320065
v 1.433879 2.320065 3.753943
v -0.000000 2.816846 3.687299
v 1.574665 3.418315 2.714103
v 0.973196 4.391511 1.139438
v -0.973196 4.391511 1.139438
v -2.320065 3.753943 1.433879
v -1.574665 3.418315 2.714103
v -1.433879 2.320065 3.753943
v -4.640129 0.000000 0.000000
v -4.391511 1.139438 -0.973196
v -4.391511 1.139438 0.973196
v -3.753943 1.433879 2.320065
v -3.418315 2.714103 1.574665
v -2.816846 3.687299 0.000000
v -3.418315 2.714103 -1.574665
v -3.753943 1.433879 -2.320065
v 0.000000 -4.640129 0.000000
v 0.973196 -4.391511 -1.139438
v -0.973196 -4.391511 -1.139438
v -2.320065 -3.753943 -1.433879
v -1.574665 -3.418315 -2.714103
v -1.433879 -2.320065 -3.753943
v 0.000000 -2.816846 -3.687299
v 1.433879 -2.320065 -3.753943
v 1.574665 -3.418315 -2.714103
v 2.320065 -3.753943 -1.433879
v -0.973196 -4.391511 1.139438
v 0.973196 -4.391511 1.139438
v 2.320065 -3.753943 1.433879
v 1.574665 -3.418315 2.714103
v 1.433879 -2.320065 3.753943
v 0.000000 -2.816846 3.687299
v -1.433879 -2.320065 3.753943
v -1.574665 -3.418315 2.714103
v -2.320065 -3.753943 1.433879
v 2.714103 -1.574665 -3.418315
v 1.139438 -0.973196 -4.391511
v 0.000000 0.000000 -4.640129
v 1.139438 0.973196 -4.391511
v 2.714103 1.574665 -3.418315
v 3.687299 0.000000 -2.816846
v 3.753943 -1.433879 -2.320065
v -1.139438 -0.973196 -4.391511
v -2.714103 -1.574665 -3.418315
v -3.753943 -1.433879 -2.320065
v -3.687299 0.000000 -2.816846
v -2.714103 1.574665 -3.418315
v -1.139438 0.973196 -4.391511
v -2.816846 -3.687299 -0.000000
v -3.418315 -2.714103 1.574665
v -3.753943 -1.433879 2.320065
v -4.391511 -1.139438 0.973196
v -4.391511 -1.139438 -0.973196
v -3.418315 -2.714103 -1.574665
v -2.714103 -1.574665 3.418315
v -1.139438 -0.973196 4.391511
v 0.000000 0.000000 4.640129
v -1.139438 0.973196 4.391511
v -2.714103 1.574665 3.418315
v -3.687299 0.000000 2.816846
v 2.816846 -3.687299 0.000000
v 3.418315 -2.714103 -1.574665
v 4.391511 -1.139438 -0.973196
v 4.391511 -1.139438 0.973196
v 3.753943 -1.433879 2.320065
v 3.418315 -2.714103 1.574665
v 1.139438 -0.973196 4.391511
v 2.714103 -1.574665 3.418315
v 3.687299 0.000000 2.816846
v 2.714103 1.574665 3.418315
v 1.139438 0.973196 4.391511
vt 1.000000 0.383860
vt 0.250000 0.116140
vt 0.191930 0.500000
vt 0.125000 0.304087
vt 0.375000 0.304087
vt 0.500000 0.383860
vt 0.250000 0.883860
vt 0.308070 0.500000
vt 0.125000 0.695913
vt 0.375000 0.695913
vt 1.000000 0.616140
vt 0.750000 0.116140
vt 0.808070 0.500000
vt 0.875000 0.304087
vt 0.625000 0.304087
vt 0.500000 0.616140
vt 0.750000 0.883860
vt 0.691930 0.500000
vt 0.875000 0.695913
vt 0.625000 0.695913
vt 1.000000 0.823792
vt 0.750000 0.676208
vt 0.500000 0.823792
vt 0.250000 0.676208
vt 1.000000 0.176208
vt 0.500000 0.176208
vt 0.911896 0.500000
vt 0.088104 0.500000
vt 0.250000 0.323792
vt 0.411896 0.500000
vt 0.750000 0.323792
vt 0.588104 0.500000
vt 0.500000 1.000000
vt 0.112502 0.895329
vt 0.887498 0.895329
vt 0.838104 0.800000
vt 0.916330 0.763610
vt 0.941930 0.666667
vt 1.000000 0.707652
vt 0.058070 0.666667
vt 0.083671 0.763610
vt 0.161896 0.800000
vt 0.750000 0.500000
vt 0.715291 0.578972
vt 0.784709 0.578972
vt 0.838104 0.600000
vt 0.818704 0.698874
vt 0.750000 0.792348
vt 0.661896 0.800000
vt 0.681296 0.698874
vt 0.661896 0.600000
vt 0.558070 0.666667
vt 0.500000 0.707652
vt 0.583671 0.763610
vt 0.612502 0.895329
vt 0.387498 0.895329
vt 0.338104 0.800000
vt 0.416329 0.763610
vt 0.441930 0.666667
vt 0.250000 0.500000
vt 0.215291 0.578972
vt 0.284709 0.578972
vt 0.338104 0.600000
vt 0.318704 0.698874
vt 0.250000 0.792348
vt 0.181296 0.698874
vt 0.161896 0.600000
vt 0.500000 1.000000
vt 0.887498 0.104671
vt 0.112502 0.104671
vt 0.161896 0.200000
vt 0.083671 0.236390
vt 0.058070 0.333333
vt 1.000000 0.292348
vt 0.941930 0.333333
vt 0.916330 0.236390
vt 0.838104 0.200000
vt 0.387498 0.104671
vt 0.612502 0.104671
vt 0.661896 0.200000
vt 0.583671 0.236390
vt 0.558070 0.333333
vt 0.500000 0.292348
vt 0.441930 0.333333
vt 0.416329 0.236390
vt 0.338104 0.200000
vt 0.893197 0.389790
vt 0.959596 0.432740
vt 1.000000 0.500000
vt 0.959596 0.567260
vt 0.893197 0.610210
vt 0.853826 0.500000
vt 0.838104 0.400000
vt 0.040404 0.432740
vt 0.106803 0.389790
vt 0.161896 0.400000
vt 0.146174 0.500000
vt 0.106803 0.610210
vt 0.040404 0.567260
vt 0.250000 0.207652
vt 0.318704 0.301126
vt 0.338104 0.400000
vt 0.284709 0.421028
vt 0.215291 0.421028
vt 0.181296 0.301126
vt 0.393197 0.389790
vt 0.459596 0.432740
vt 0.500000 0.500000
vt 0.459596 0.567260
vt 0.393197 0.610210
vt 0.353826 0.500000
vt 0.750000 0.207652
vt 0.818704 0.301126
vt 0.784709 0.421028
vt 0.715291 0.421028
vt 0.661896 0.400000
vt 0.681296 0.301126
vt 0.540404 0.432740
vt 0.606803 0.389790
vt 0.646174 0.500000
vt 0.606803 0.610210
vt 0.540404 0.567260
vt 1.112502 0.895329
vt 1.058070 0.666667
vt 1.083670 0.763610
vt 1.112502 0.104671
vt 1.083670 0.236390
vt 1.058070 0.333333
vt 1.040404 0.432740
vt 1.040404 0.567260
vn -0.356822 0.934172 0.000000
vn 0.000000 1.000000 0.000000
vn -0.186569 0.941665 -0.280107
vn 0.356822 0.934172 -0.000000
vn 0.186569 0.941665 -0.280107
vn 0.000000 0.850651 -0.525731
vn 0.500000 0.809017 -0.309017
vn 0.577350 0.577350 -0.577350
vn 0.301874 0.755096 -0.581981
vn 0.309017 0.500000 -0.809017
vn 0.000000 0.356822 -0.934172
vn 0.000000 0.639791 -0.768549
vn -0.309017 0.500000 -0.809017
vn -0.577350 0.577350 -0.577350
vn -0.301874 0.755096 -0.581981
vn -0.500000 0.809017 -0.309017
vn 0.934172 -0.000000 0.356822
vn 1.000000 0.000000 0.000000
vn 0.941665 0.280107 0.186569
vn 0.934172 0.000000 -0.356822
vn 0.941665 0.280107 -0.186569
vn 0.850651 0.525731 -0.000000
vn 0.809017 0.309017 -0.500000
vn 0.755096 0.581981 -0.301874
vn 0.639791 0.768549 -0.000000
vn 0.500000 0.809017 0.309017
vn 0.577350 0.577350 0.577350
vn 0.755096 0.581981 0.301874
vn 0.809017 0.309017 0.500000
vn -0.000000 0.356822 0.934172
vn 0.309017 0.500000 0.809017
vn -0.000000 0.639791 0.768549
vn 0.301874 0.755096 0.581981
vn -0.000000 0.850651 0.525731
vn 0.186569 0.941665 0.280107
vn -0.186569 0.941665 0.280107
vn -0.500000 0.809017 0.309017
vn -0.577350 0.577350 0.577350
vn -0.301874 0.755096 0.581981
vn -0.309017 0.500000 0.809017
vn -0.934172 -0.000000 -0.356822
vn -1.000000 0.000000 0.000000
vn -0.941665 0.280107 -0.186569
vn -0.934172 0.000000 0.356822
vn -0.941665 0.280107 0.186569
vn -0.850651 0.525731 0.000000
vn -0.809017 0.309017 0.500000
vn -0.755096 0.581981 0.301874
vn -0.639791 0.768549 0.000000
vn -0.755096 0.581981 -0.301874
vn -0.809017 0.309017 -0.500000
vn 0.356822 -0.934172 0.000000
vn 0.000000 -1.000000 0.000000
vn 0.186569 -0.941665 -0.280107
vn -0.356822 -0.934172 -0.000000
vn -0.186569 -0.941665 -0.280107
vn -0.000000 -0.850651 -0.525731
vn -0.500000 -0.809017 -0.309017
vn -0.577350 -0.577350 -0.577350
vn -0.301874 -0.755096 -0.581981
vn -0.309017 -0.500000 -0.809017
vn -0.000000 -0.356822 -0.934172
vn -0.000000 -0.639791 -0.768549
vn 0.309017 -0.500000 -0.809017
vn 0.577350 -0.577350 -0.577350
vn 0.301874 -0.755096 -0.581981
vn 0.500000 -0.809017 -0.309017
vn -0.186569 -0.941665 0.280107
vn 0.186569 -0.941665 0.280107
vn 0.000000 -0.850651 0.525731
vn 0.500000 -0.809017 0.309017
vn 0.577350 -0.577350 0.577350
vn 0.301874 -0.755096 0.581981
vn 0.309017 -0.500000 0.809017
vn 0.000000 -0.356822 0.934172
vn 0.000000 -0.639791 0.768549
vn -0.309017 -0.500000 0.809017
vn -0.577350 -0.577350 0.577350
vn -0.301874 -0.755096 0.581981
vn -0.500000 -0.809017 0.309017
vn 0.581981 -0.301874 -0.755096
vn 0.280107 -0.186569 -0.941665
vn 0.525731 0.000000 -0.850651
vn 0.000000 0.000000 -1.000000
vn 0.280107 0.186569 -0.941665
vn 0.581981 0.301874 -0.755096
vn 0.768549 0.000000 -0.639791
vn 0.809017 -0.309017 -0.500000
vn -0.280107 -0.186569 -0.941665
vn -0.581981 -0.301874 -0.755096
vn -0.525731 -0.000000 -0.850651
vn -0.809017 -0.309017 -0.500000
vn -0.768549 -0.000000 -0.639791
vn -0.581981 0.301874 -0.755096
vn -0.280107 0.186569 -0.941665
vn -0.639791 -0.768549 -0.000000
vn -0.755096 -0.581981 0.301874
vn -0.850651 -0.525731 -0.000000
vn -0.809017 -0.309017 0.500000
vn -0.941665 -0.280107 0.186569
vn -0.941665 -0.280107 -0.186569
vn -0.755096 -0.581981 -0.301874
vn -0.581981 -0.301874 0.755096
vn -0.280107 -0.186569 0.941665
vn -0.525731 0.000000 0.850651
vn 0.000000 0.000000 1.000000
vn -0.280107 0.186569 0.941665
vn -0.581981 0.301874 0.755096
vn -0.768549 0.000000 0.639791
vn 0.639791 -0.768549 0.000000
vn 0.755096 -0.581981 -0.301874
vn 0.850651 -0.525731 0.000000
vn 0.941665 -0.280107 -0.186569
vn 0.941665 -0.280107 0.186569
vn 0.809017 -0.309017 0.500000
vn 0.755096 -0.581981 0.301874
vn 0.280107 -0.186569 0.941665
vn 0.581981 -0.301874 0.755096
vn 0.525731 -0.000000 0.850651
vn 0.768549 -0.000000 0.639791
vn 0.581981 0.301874 0.755096
vn 0.280107 0.186569 0.941665
s 1
g pPlatonic1
usemtl initialShadingGroup
f 7/7/1 33/33/2 34/34/3
f 33/33/2 17/17/4 35/35/5
f 33/33/2 35/35/5 34/123/3
f 34/123/3 35/35/5 21/21/6
f 17/17/4 36/36/7 35/35/5
f 36/36/7 19/19/8 37/37/9
f 36/36/7 37/37/9 35/35/5
f 35/35/5 37/37/9 21/21/6
f 19/19/8 38/38/10 37/37/9
f 38/38/10 11/11/11 39/39/12
f 38/38/10 39/39/12 37/37/9
f 37/37/9 39/39/12 21/21/6
f 11/11/11 40/124/13 39/39/12
f 40/40/13 9/9/14 41/41/15
f 40/124/13 41/125/15 39/39/12
f 39/39/12 41/125/15 21/21/6
f 9/9/14 42/42/16 41/41/15
f 42/42/16 7/7/1 34/34/3
f 42/42/16 34/34/3 41/41/15
f 41/125/15 34/123/3 21/21/6
f 18/18/17 43/43/18 44/44/19
f 43/43/18 13/13/20 45/45/21
f 43/43/18 45/45/21 44/44/19
f 44/44/19 45/45/21 22/22/22
f 13/13/20 46/46/23 45/45/21
f 46/46/23 19/19/8 47/47/24
f 46/46/23 47/47/24 45/45/21
f 45/45/21 47/47/24 22/22/22
f 19/19/8 36/36/7 47/47/24
f 36/36/7 17/17/4 48/48/25
f 36/36/7 48/48/25 47/47/24
f 47/47/24 48/48/25 22/22/22
f 17/17/4 49/49/26 48/48/25
f 49/49/26 20/20/27 50/50/28
f 49/49/26 50/50/28 48/48/25
f 48/48/25 50/50/28 22/22/22
f 20/20/27 51/51/29 50/50/28
f 51/51/29 18/18/17 44/44/19
f 51/51/29 44/44/19 50/50/28
f 50/50/28 44/44/19 22/22/22
f 16/16/30 52/52/31 53/53/32
f 52/52/31 20/20/27 54/54/33
f 52/52/31 54/54/33 53/53/32
f 53/53/32 54/54/33 23/23/34
f 20/20/27 49/49/26 54/54/33
f 49/49/26 17/17/4 55/55/35
f 49/49/26 55/55/35 54/54/33
f 54/54/33 55/55/35 23/23/34
f 17/17/4 33/33/2 55/55/35
f 33/33/2 7/7/1 56/56/36
f 33/33/2 56/56/36 55/55/35
f 55/55/35 56/56/36 23/23/34
f 7/7/1 57/57/37 56/56/36
f 57/57/37 10/10/38 58/58/39
f 57/57/37 58/58/39 56/56/36
f 56/56/36 58/58/39 23/23/34
f 10/10/38 59/59/40 58/58/39
f 59/59/40 16/16/30 53/53/32
f 59/59/40 53/53/32 58/58/39
f 58/58/39 53/53/32 23/23/34
f 3/3/41 60/60/42 61/61/43
f 60/60/42 8/8/44 62/62/45
f 60/60/42 62/62/45 61/61/43
f 61/61/43 62/62/45 24/24/46
f 8/8/44 63/63/47 62/62/45
f 63/63/47 10/10/38 64/64/48
f 63/63/47 64/64/48 62/62/45
f 62/62/45 64/64/48 24/24/46
f 10/10/38 57/57/37 64/64/48
f 57/57/37 7/7/1 65/65/49
f 57/57/37 65/65/49 64/64/48
f 64/64/48 65/65/49 24/24/46
f 7/7/1 42/42/16 65/65/49
f 42/42/16 9/9/14 66/66/50
f 42/42/16 66/66/50 65/65/49
f 65/65/49 66/66/50 24/24/46
f 9/9/14 67/67/51 66/66/50
f 67/67/51 3/3/41 61/61/43
f 67/67/51 61/61/43 66/66/50
f 66/66/50 61/61/43 24/24/46
f 12/12/52 68/68/53 69/69/54
f 68/68/53 2/2/55 70/70/56
f 68/68/53 70/126/56 69/69/54
f 69/69/54 70/126/56 25/25/57
f 2/2/55 71/71/58 70/70/56
f 71/71/58 4/4/59 72/72/60
f 71/71/58 72/72/60 70/70/56
f 70/126/56 72/127/60 25/25/57
f 4/4/59 73/73/61 72/72/60
f 73/128/61 1/1/62 74/74/63
f 73/128/61 74/74/63 72/127/60
f 72/127/60 74/74/63 25/25/57
f 1/1/62 75/75/64 74/74/63
f 75/75/64 14/14/65 76/76/66
f 75/75/64 76/76/66 74/74/63
f 74/74/63 76/76/66 25/25/57
f 14/14/65 77/77/67 76/76/66
f 77/77/67 12/12/52 69/69/54
f 77/77/67 69/69/54 76/76/66
f 76/76/66 69/69/54 25/25/57
f 2/2/55 68/68/53 78/78/68
f 68/68/53 12/12/52 79/79/69
f 68/68/53 79/79/69 78/78/68
f 78/78/68 79/79/69 26/26/70
f 12/12/52 80/80/71 79/79/69
f 80/80/71 15/15/72 81/81/73
f 80/80/71 81/81/73 79/79/69
f 79/79/69 81/81/73 26/26/70
f 15/15/72 82/82/74 81/81/73
f 82/82/74 6/6/75 83/83/76
f 82/82/74 83/83/76 81/81/73
f 81/81/73 83/83/76 26/26/70
f 6/6/75 84/84/77 83/83/76
f 84/84/77 5/5/78 85/85/79
f 84/84/77 85/85/79 83/83/76
f 83/83/76 85/85/79 26/26/70
f 5/5/78 86/86/80 85/85/79
f 86/86/80 2/2/55 78/78/68
f 86/86/80 78/78/68 85/85/79
f 85/85/79 78/78/68 26/26/70
f 14/14/65 75/75/64 87/87/81
f 75/75/64 1/1/62 88/88/82
f 75/75/64 88/88/82 87/87/81
f 87/87/81 88/88/82 27/27/83
f 1/1/62 89/89/84 88/88/82
f 89/89/84 11/11/11 90/90/85
f 89/89/84 90/90/85 88/88/82
f 88/88/82 90/90/85 27/27/83
f 11/11/11 38/38/10 90/90/85
f 38/38/10 19/19/8 91/91/86
f 38/38/10 91/91/86 90/90/85
f 90/90/85 91/91/86 27/27/83
f 19/19/8 46/46/23 91/91/86
f 46/46/23 13/13/20 92/92/87
f 46/46/23 92/92/87 91/91/86
f 91/91/86 92/92/87 27/27/83
f 13/13/20 93/93/88 92/92/87
f 93/93/88 14/14/65 87/87/81
f 93/93/88 87/87/81 92/92/87
f 92/92/87 87/87/81 27/27/83
f 1/1/62 73/128/61 94/129/89
f 73/73/61 4/4/59 95/95/90
f 73/73/61 95/95/90 94/94/89
f 94/94/89 95/95/90 28/28/91
f 4/4/59 96/96/92 95/95/90
f 96/96/92 3/3/41 97/97/93
f 96/96/92 97/97/93 95/95/90
f 95/95/90 97/97/93 28/28/91
f 3/3/41 67/67/51 97/97/93
f 67/67/51 9/9/14 98/98/94
f 67/67/51 98/98/94 97/97/93
f 97/97/93 98/98/94 28/28/91
f 9/9/14 40/40/13 98/98/94
f 40/124/13 11/11/11 99/130/95
f 40/40/13 99/99/95 98/98/94
f 98/98/94 99/99/95 28/28/91
f 11/11/11 89/89/84 99/130/95
f 89/89/84 1/1/62 94/129/89
f 89/89/84 94/129/89 99/130/95
f 99/99/95 94/94/89 28/28/91
f 2/2/55 86/86/80 100/100/96
f 86/86/80 5/5/78 101/101/97
f 86/86/80 101/101/97 100/100/96
f 100/100/96 101/101/97 29/29/98
f 5/5/78 102/102/99 101/101/97
f 102/102/99 8/8/44 103/103/100
f 102/102/99 103/103/100 101/101/97
f 101/101/97 103/103/100 29/29/98
f 8/8/44 60/60/42 103/103/100
f 60/60/42 3/3/41 104/104/101
f 60/60/42 104/104/101 103/103/100
f 103/103/100 104/104/101 29/29/98
f 3/3/41 96/96/92 104/104/101
f 96/96/92 4/4/59 105/105/102
f 96/96/92 105/105/102 104/104/101
f 104/104/101 105/105/102 29/29/98
f 4/4/59 71/71/58 105/105/102
f 71/71/58 2/2/55 100/100/96
f 71/71/58 100/100/96 105/105/102
f 105/105/102 100/100/96 29/29/98
f 5/5/78 84/84/77 106/106/103
f 84/84/77 6/6/75 107/107/104
f 84/84/77 107/107/104 106/106/103
f 106/106/103 107/107/104 30/30/105
f 6/6/75 108/108/106 107/107/104
f 108/108/106 16/16/30 109/109/107
f 108/108/106 109/109/107 107/107/104
f 107/107/104 109/109/107 30/30/105
f 16/16/30 59/59/40 109/109/107
f 59/59/40 10/10/38 110/110/108
f 59/59/40 110/110/108 109/109/107
f 109/109/107 110/110/108 30/30/105
f 10/10/38 63/63/47 110/110/108
f 63/63/47 8/8/44 111/111/109
f 63/63/47 111/111/109 110/110/108
f 110/110/108 111/111/109 30/30/105
f 8/8/44 102/102/99 111/111/109
f 102/102/99 5/5/78 106/106/103
f 102/102/99 106/106/103 111/111/109
f 111/111/109 106/106/103 30/30/105
f 12/12/52 77/77/67 112/112/110
f 77/77/67 14/14/65 113/113/111
f 77/77/67 113/113/111 112/112/110
f 112/112/110 113/113/111 31/31/112
f 14/14/65 93/93/88 113/113/111
f 93/93/88 13/13/20 114/114/113
f 93/93/88 114/114/113 113/113/111
f 113/113/111 114/114/113 31/31/112
f 13/13/20 43/43/18 114/114/113
f 43/43/18 18/18/17 115/115/114
f 43/43/18 115/115/114 114/114/113
f 114/114/113 115/115/114 31/31/112
f 18/18/17 116/116/115 115/115/114
f 116/116/115 15/15/72 117/117/116
f 116/116/115 117/117/116 115/115/114
f 115/115/114 117/117/116 31/31/112
f 15/15/72 80/80/71 117/117/116
f 80/80/71 12/12/52 112/112/110
f 80/80/71 112/112/110 117/117/116
f 117/117/116 112/112/110 31/31/112
f 6/6/75 82/82/74 118/118/117
f 82/82/74 15/15/72 119/119/118
f 82/82/74 119/119/118 118/118/117
f 118/118/117 119/119/118 32/32/119
f 15/15/72 116/116/115 119/119/118
f 116/116/115 18/18/17 120/120/120
f 116/116/115 120/120/120 119/119/118
f 119/119/118 120/120/120 32/32/119
f 18/18/17 51/51/29 120/120/120
f 51/51/29 20/20/27 121/121/121
f 51/51/29 121/121/121 120/120/120
f 120/120/120 121/121/121 32/32/119
f 20/20/27 52/52/31 121/121/121
f 52/52/31 16/16/30 122/122/122
f 52/52/31 122/122/122 121/121/121
f 121/121/121 122/122/122 32/32/119
f 16/16/30 108/108/106 122/122/122
f 108/108/106 6/6/75 118/118/117
f 108/108/106 118/118/117 122/122/122
f 122/122/122 118/118/117 32/32/119
